<!DOCTYPE svg PUBLIC "-//W3C//DTD SVG 1.1//EN" "http://www.w3.org/Graphics/SVG/1.1/DTD/svg11.dtd">
<!-- Uploaded to: SVG Repo, www.svgrepo.com, Transformed by: SVG Repo Mixer Tools -->
<svg fill="#000000" width="800px" height="800px" viewBox="0 0 24 24" id="sign-out-left" data-name="Flat Line" xmlns="http://www.w3.org/2000/svg" class="icon flat-line">
<g id="SVGRepo_bgCarrier" stroke-width="0"/>
<g id="SVGRepo_tracerCarrier" stroke-linecap="round" stroke-linejoin="round"/>
<g id="SVGRepo_iconCarrier">
<path id="secondary" d="M9.44,5.65,11,7a1,1,0,0,1,.11,1.41L9.66,10H17v4H9.66l1.41,1.64A1,1,0,0,1,11,17.05l-1.52,1.3A1,1,0,0,1,8,18.24L3.24,12.65a1,1,0,0,1,0-1.3L8,5.76A1,1,0,0,1,9.44,5.65Z" style="fill: #957554; stroke-width: 2;"/>
<path id="primary" d="M17,4h3a1,1,0,0,1,1,1V19a1,1,0,0,1-1,1H17" style="fill: none; stroke: #000000; stroke-linecap: round; stroke-linejoin: round; stroke-width: 2;"/>
<path id="primary-2" data-name="primary" d="M9.44,5.65,11,7a1,1,0,0,1,.11,1.41L9.66,10H17v4H9.66l1.41,1.64A1,1,0,0,1,11,17.05l-1.52,1.3A1,1,0,0,1,8,18.24L3.24,12.65a1,1,0,0,1,0-1.3L8,5.76A1,1,0,0,1,9.44,5.65Z" style="fill: none; stroke: #000000; stroke-linecap: round; stroke-linejoin: round; stroke-width: 2;"/>
</g>
</svg>